<mxfile host="app.diagrams.net" modified="2022-07-24T09:41:08.998Z" agent="5.0 (Windows NT 10.0; Win64; x64) AppleWebKit/537.36 (KHTML, like Gecko) Chrome/103.0.5060.114 Safari/537.36" etag="RGItLTgwyfedmfApAZcq" version="20.2.0" type="github" pages="7">
  <diagram id="v_I8Ud_tMwS76h29AfEk" name="demo-architecture">
    <mxGraphModel dx="1888" dy="621" grid="1" gridSize="10" guides="1" tooltips="1" connect="1" arrows="1" fold="1" page="1" pageScale="1" pageWidth="850" pageHeight="1100" math="0" shadow="0">
      <root>
        <mxCell id="0" />
        <mxCell id="1" parent="0" />
        <mxCell id="hhGP_iGd9nHn72yoj9-v-1" value="" style="group" vertex="1" connectable="0" parent="1">
          <mxGeometry x="160" y="60" width="440" height="410" as="geometry" />
        </mxCell>
        <mxCell id="hhGP_iGd9nHn72yoj9-v-2" value="" style="rounded=1;whiteSpace=wrap;html=1;fontSize=12;arcSize=4;fillColor=#f5f5f5;fontColor=#333333;strokeColor=#666666;" vertex="1" parent="hhGP_iGd9nHn72yoj9-v-1">
          <mxGeometry width="440" height="409.99999999999994" as="geometry" />
        </mxCell>
        <mxCell id="hhGP_iGd9nHn72yoj9-v-3" value="&lt;b&gt;Kubernetes Cluster&lt;/b&gt;" style="text;html=1;strokeColor=none;fillColor=none;align=center;verticalAlign=middle;whiteSpace=wrap;rounded=0;fontSize=12;" vertex="1" parent="hhGP_iGd9nHn72yoj9-v-1">
          <mxGeometry x="10" y="3.0749999999999997" width="120" height="30.749999999999996" as="geometry" />
        </mxCell>
        <mxCell id="hhGP_iGd9nHn72yoj9-v-4" value="" style="group" vertex="1" connectable="0" parent="1">
          <mxGeometry x="200" y="110" width="140" height="150" as="geometry" />
        </mxCell>
        <mxCell id="hhGP_iGd9nHn72yoj9-v-5" value="&lt;font style=&quot;font-size: 12px&quot;&gt;NODE A&lt;/font&gt;" style="rounded=1;whiteSpace=wrap;html=1;fontSize=10;fillColor=#ffe6cc;strokeColor=#d79b00;" vertex="1" parent="hhGP_iGd9nHn72yoj9-v-4">
          <mxGeometry width="140" height="150" as="geometry" />
        </mxCell>
        <mxCell id="hhGP_iGd9nHn72yoj9-v-6" value="" style="group" vertex="1" connectable="0" parent="hhGP_iGd9nHn72yoj9-v-4">
          <mxGeometry x="80" y="10" width="60" height="60" as="geometry" />
        </mxCell>
        <mxCell id="hhGP_iGd9nHn72yoj9-v-7" value="" style="sketch=0;html=1;dashed=0;whitespace=wrap;fillColor=#2875E2;strokeColor=#ffffff;points=[[0.005,0.63,0],[0.1,0.2,0],[0.9,0.2,0],[0.5,0,0],[0.995,0.63,0],[0.72,0.99,0],[0.5,1,0],[0.28,0.99,0]];shape=mxgraph.kubernetes.icon;prIcon=pod" vertex="1" parent="hhGP_iGd9nHn72yoj9-v-6">
          <mxGeometry x="6.25" width="47.5" height="40" as="geometry" />
        </mxCell>
        <mxCell id="hhGP_iGd9nHn72yoj9-v-8" value="Reviews" style="text;html=1;strokeColor=none;fillColor=none;align=center;verticalAlign=middle;whiteSpace=wrap;rounded=0;fontSize=10;" vertex="1" parent="hhGP_iGd9nHn72yoj9-v-6">
          <mxGeometry y="30" width="60" height="30" as="geometry" />
        </mxCell>
        <mxCell id="hhGP_iGd9nHn72yoj9-v-9" value="" style="group" vertex="1" connectable="0" parent="hhGP_iGd9nHn72yoj9-v-4">
          <mxGeometry y="89" width="60" height="60" as="geometry" />
        </mxCell>
        <mxCell id="hhGP_iGd9nHn72yoj9-v-10" value="" style="sketch=0;html=1;dashed=0;whitespace=wrap;fillColor=#2875E2;strokeColor=#ffffff;points=[[0.005,0.63,0],[0.1,0.2,0],[0.9,0.2,0],[0.5,0,0],[0.995,0.63,0],[0.72,0.99,0],[0.5,1,0],[0.28,0.99,0]];shape=mxgraph.kubernetes.icon;prIcon=pod" vertex="1" parent="hhGP_iGd9nHn72yoj9-v-9">
          <mxGeometry x="6.25" width="47.5" height="40" as="geometry" />
        </mxCell>
        <mxCell id="hhGP_iGd9nHn72yoj9-v-11" value="Ratings" style="text;html=1;strokeColor=none;fillColor=none;align=center;verticalAlign=middle;whiteSpace=wrap;rounded=0;fontSize=10;" vertex="1" parent="hhGP_iGd9nHn72yoj9-v-9">
          <mxGeometry y="30" width="60" height="30" as="geometry" />
        </mxCell>
        <mxCell id="hhGP_iGd9nHn72yoj9-v-12" value="" style="group" vertex="1" connectable="0" parent="hhGP_iGd9nHn72yoj9-v-4">
          <mxGeometry x="80" y="90" width="60" height="60" as="geometry" />
        </mxCell>
        <mxCell id="hhGP_iGd9nHn72yoj9-v-13" value="" style="sketch=0;html=1;dashed=0;whitespace=wrap;fillColor=#2875E2;strokeColor=#ffffff;points=[[0.005,0.63,0],[0.1,0.2,0],[0.9,0.2,0],[0.5,0,0],[0.995,0.63,0],[0.72,0.99,0],[0.5,1,0],[0.28,0.99,0]];shape=mxgraph.kubernetes.icon;prIcon=pod" vertex="1" parent="hhGP_iGd9nHn72yoj9-v-12">
          <mxGeometry x="6.25" width="47.5" height="40" as="geometry" />
        </mxCell>
        <mxCell id="hhGP_iGd9nHn72yoj9-v-14" value="Products" style="text;html=1;strokeColor=none;fillColor=none;align=center;verticalAlign=middle;whiteSpace=wrap;rounded=0;fontSize=10;" vertex="1" parent="hhGP_iGd9nHn72yoj9-v-12">
          <mxGeometry y="30" width="60" height="30" as="geometry" />
        </mxCell>
        <mxCell id="hhGP_iGd9nHn72yoj9-v-15" value="" style="group" vertex="1" connectable="0" parent="hhGP_iGd9nHn72yoj9-v-4">
          <mxGeometry y="10" width="60" height="60" as="geometry" />
        </mxCell>
        <mxCell id="hhGP_iGd9nHn72yoj9-v-16" value="" style="sketch=0;html=1;dashed=0;whitespace=wrap;fillColor=#2875E2;strokeColor=#ffffff;points=[[0.005,0.63,0],[0.1,0.2,0],[0.9,0.2,0],[0.5,0,0],[0.995,0.63,0],[0.72,0.99,0],[0.5,1,0],[0.28,0.99,0]];shape=mxgraph.kubernetes.icon;prIcon=pod" vertex="1" parent="hhGP_iGd9nHn72yoj9-v-15">
          <mxGeometry x="6.25" width="47.5" height="40" as="geometry" />
        </mxCell>
        <mxCell id="hhGP_iGd9nHn72yoj9-v-17" value="Products" style="text;html=1;strokeColor=none;fillColor=none;align=center;verticalAlign=middle;whiteSpace=wrap;rounded=0;fontSize=10;" vertex="1" parent="hhGP_iGd9nHn72yoj9-v-15">
          <mxGeometry y="30" width="60" height="30" as="geometry" />
        </mxCell>
        <mxCell id="hhGP_iGd9nHn72yoj9-v-18" value="" style="group" vertex="1" connectable="0" parent="1">
          <mxGeometry x="310" y="300" width="140" height="150" as="geometry" />
        </mxCell>
        <mxCell id="hhGP_iGd9nHn72yoj9-v-19" value="&lt;font style=&quot;font-size: 12px&quot;&gt;NODE C&lt;/font&gt;" style="rounded=1;whiteSpace=wrap;html=1;fontSize=10;fillColor=#ffe6cc;strokeColor=#d79b00;" vertex="1" parent="hhGP_iGd9nHn72yoj9-v-18">
          <mxGeometry width="140" height="150" as="geometry" />
        </mxCell>
        <mxCell id="hhGP_iGd9nHn72yoj9-v-20" value="" style="group" vertex="1" connectable="0" parent="hhGP_iGd9nHn72yoj9-v-18">
          <mxGeometry x="80" y="10" width="60" height="60" as="geometry" />
        </mxCell>
        <mxCell id="hhGP_iGd9nHn72yoj9-v-21" value="" style="sketch=0;html=1;dashed=0;whitespace=wrap;fillColor=#2875E2;strokeColor=#ffffff;points=[[0.005,0.63,0],[0.1,0.2,0],[0.9,0.2,0],[0.5,0,0],[0.995,0.63,0],[0.72,0.99,0],[0.5,1,0],[0.28,0.99,0]];shape=mxgraph.kubernetes.icon;prIcon=pod" vertex="1" parent="hhGP_iGd9nHn72yoj9-v-20">
          <mxGeometry x="6.25" width="47.5" height="40" as="geometry" />
        </mxCell>
        <mxCell id="hhGP_iGd9nHn72yoj9-v-22" value="Reviews" style="text;html=1;strokeColor=none;fillColor=none;align=center;verticalAlign=middle;whiteSpace=wrap;rounded=0;fontSize=10;" vertex="1" parent="hhGP_iGd9nHn72yoj9-v-20">
          <mxGeometry y="30" width="60" height="30" as="geometry" />
        </mxCell>
        <mxCell id="hhGP_iGd9nHn72yoj9-v-23" value="" style="group" vertex="1" connectable="0" parent="hhGP_iGd9nHn72yoj9-v-18">
          <mxGeometry y="89" width="60" height="60" as="geometry" />
        </mxCell>
        <mxCell id="hhGP_iGd9nHn72yoj9-v-24" value="" style="sketch=0;html=1;dashed=0;whitespace=wrap;fillColor=#2875E2;strokeColor=#ffffff;points=[[0.005,0.63,0],[0.1,0.2,0],[0.9,0.2,0],[0.5,0,0],[0.995,0.63,0],[0.72,0.99,0],[0.5,1,0],[0.28,0.99,0]];shape=mxgraph.kubernetes.icon;prIcon=pod" vertex="1" parent="hhGP_iGd9nHn72yoj9-v-23">
          <mxGeometry x="6.25" width="47.5" height="40" as="geometry" />
        </mxCell>
        <mxCell id="hhGP_iGd9nHn72yoj9-v-25" value="Ratings" style="text;html=1;strokeColor=none;fillColor=none;align=center;verticalAlign=middle;whiteSpace=wrap;rounded=0;fontSize=10;" vertex="1" parent="hhGP_iGd9nHn72yoj9-v-23">
          <mxGeometry y="30" width="60" height="30" as="geometry" />
        </mxCell>
        <mxCell id="hhGP_iGd9nHn72yoj9-v-26" value="" style="group" vertex="1" connectable="0" parent="hhGP_iGd9nHn72yoj9-v-18">
          <mxGeometry x="80" y="90" width="60" height="60" as="geometry" />
        </mxCell>
        <mxCell id="hhGP_iGd9nHn72yoj9-v-27" value="" style="sketch=0;html=1;dashed=0;whitespace=wrap;fillColor=#2875E2;strokeColor=#ffffff;points=[[0.005,0.63,0],[0.1,0.2,0],[0.9,0.2,0],[0.5,0,0],[0.995,0.63,0],[0.72,0.99,0],[0.5,1,0],[0.28,0.99,0]];shape=mxgraph.kubernetes.icon;prIcon=pod" vertex="1" parent="hhGP_iGd9nHn72yoj9-v-26">
          <mxGeometry x="6.25" width="47.5" height="40" as="geometry" />
        </mxCell>
        <mxCell id="hhGP_iGd9nHn72yoj9-v-28" value="Products" style="text;html=1;strokeColor=none;fillColor=none;align=center;verticalAlign=middle;whiteSpace=wrap;rounded=0;fontSize=10;" vertex="1" parent="hhGP_iGd9nHn72yoj9-v-26">
          <mxGeometry y="30" width="60" height="30" as="geometry" />
        </mxCell>
        <mxCell id="hhGP_iGd9nHn72yoj9-v-29" value="" style="group" vertex="1" connectable="0" parent="hhGP_iGd9nHn72yoj9-v-18">
          <mxGeometry y="10" width="60" height="60" as="geometry" />
        </mxCell>
        <mxCell id="hhGP_iGd9nHn72yoj9-v-30" value="" style="sketch=0;html=1;dashed=0;whitespace=wrap;fillColor=#2875E2;strokeColor=#ffffff;points=[[0.005,0.63,0],[0.1,0.2,0],[0.9,0.2,0],[0.5,0,0],[0.995,0.63,0],[0.72,0.99,0],[0.5,1,0],[0.28,0.99,0]];shape=mxgraph.kubernetes.icon;prIcon=pod" vertex="1" parent="hhGP_iGd9nHn72yoj9-v-29">
          <mxGeometry x="6.25" width="47.5" height="40" as="geometry" />
        </mxCell>
        <mxCell id="hhGP_iGd9nHn72yoj9-v-31" value="Products" style="text;html=1;strokeColor=none;fillColor=none;align=center;verticalAlign=middle;whiteSpace=wrap;rounded=0;fontSize=10;" vertex="1" parent="hhGP_iGd9nHn72yoj9-v-29">
          <mxGeometry y="30" width="60" height="30" as="geometry" />
        </mxCell>
        <mxCell id="hhGP_iGd9nHn72yoj9-v-32" value="" style="group" vertex="1" connectable="0" parent="1">
          <mxGeometry x="420" y="110" width="140" height="150" as="geometry" />
        </mxCell>
        <mxCell id="hhGP_iGd9nHn72yoj9-v-33" value="&lt;font style=&quot;font-size: 12px&quot;&gt;NODE B&lt;/font&gt;" style="rounded=1;whiteSpace=wrap;html=1;fontSize=10;fillColor=#ffe6cc;strokeColor=#d79b00;" vertex="1" parent="hhGP_iGd9nHn72yoj9-v-32">
          <mxGeometry width="140" height="150" as="geometry" />
        </mxCell>
        <mxCell id="hhGP_iGd9nHn72yoj9-v-34" value="" style="group" vertex="1" connectable="0" parent="hhGP_iGd9nHn72yoj9-v-32">
          <mxGeometry x="80" y="10" width="60" height="60" as="geometry" />
        </mxCell>
        <mxCell id="hhGP_iGd9nHn72yoj9-v-35" value="" style="sketch=0;html=1;dashed=0;whitespace=wrap;fillColor=#2875E2;strokeColor=#ffffff;points=[[0.005,0.63,0],[0.1,0.2,0],[0.9,0.2,0],[0.5,0,0],[0.995,0.63,0],[0.72,0.99,0],[0.5,1,0],[0.28,0.99,0]];shape=mxgraph.kubernetes.icon;prIcon=pod" vertex="1" parent="hhGP_iGd9nHn72yoj9-v-34">
          <mxGeometry x="6.25" width="47.5" height="40" as="geometry" />
        </mxCell>
        <mxCell id="hhGP_iGd9nHn72yoj9-v-36" value="Reviews" style="text;html=1;strokeColor=none;fillColor=none;align=center;verticalAlign=middle;whiteSpace=wrap;rounded=0;fontSize=10;" vertex="1" parent="hhGP_iGd9nHn72yoj9-v-34">
          <mxGeometry y="30" width="60" height="30" as="geometry" />
        </mxCell>
        <mxCell id="hhGP_iGd9nHn72yoj9-v-37" value="" style="group" vertex="1" connectable="0" parent="hhGP_iGd9nHn72yoj9-v-32">
          <mxGeometry y="89" width="60" height="60" as="geometry" />
        </mxCell>
        <mxCell id="hhGP_iGd9nHn72yoj9-v-38" value="" style="sketch=0;html=1;dashed=0;whitespace=wrap;fillColor=#2875E2;strokeColor=#ffffff;points=[[0.005,0.63,0],[0.1,0.2,0],[0.9,0.2,0],[0.5,0,0],[0.995,0.63,0],[0.72,0.99,0],[0.5,1,0],[0.28,0.99,0]];shape=mxgraph.kubernetes.icon;prIcon=pod" vertex="1" parent="hhGP_iGd9nHn72yoj9-v-37">
          <mxGeometry x="6.25" width="47.5" height="40" as="geometry" />
        </mxCell>
        <mxCell id="hhGP_iGd9nHn72yoj9-v-39" value="Ratings" style="text;html=1;strokeColor=none;fillColor=none;align=center;verticalAlign=middle;whiteSpace=wrap;rounded=0;fontSize=10;" vertex="1" parent="hhGP_iGd9nHn72yoj9-v-37">
          <mxGeometry y="30" width="60" height="30" as="geometry" />
        </mxCell>
        <mxCell id="hhGP_iGd9nHn72yoj9-v-40" value="" style="group" vertex="1" connectable="0" parent="hhGP_iGd9nHn72yoj9-v-32">
          <mxGeometry x="80" y="90" width="60" height="60" as="geometry" />
        </mxCell>
        <mxCell id="hhGP_iGd9nHn72yoj9-v-41" value="" style="sketch=0;html=1;dashed=0;whitespace=wrap;fillColor=#2875E2;strokeColor=#ffffff;points=[[0.005,0.63,0],[0.1,0.2,0],[0.9,0.2,0],[0.5,0,0],[0.995,0.63,0],[0.72,0.99,0],[0.5,1,0],[0.28,0.99,0]];shape=mxgraph.kubernetes.icon;prIcon=pod" vertex="1" parent="hhGP_iGd9nHn72yoj9-v-40">
          <mxGeometry x="6.25" width="47.5" height="40" as="geometry" />
        </mxCell>
        <mxCell id="hhGP_iGd9nHn72yoj9-v-42" value="Products" style="text;html=1;strokeColor=none;fillColor=none;align=center;verticalAlign=middle;whiteSpace=wrap;rounded=0;fontSize=10;" vertex="1" parent="hhGP_iGd9nHn72yoj9-v-40">
          <mxGeometry y="30" width="60" height="30" as="geometry" />
        </mxCell>
        <mxCell id="hhGP_iGd9nHn72yoj9-v-43" value="" style="group" vertex="1" connectable="0" parent="hhGP_iGd9nHn72yoj9-v-32">
          <mxGeometry y="10" width="60" height="60" as="geometry" />
        </mxCell>
        <mxCell id="hhGP_iGd9nHn72yoj9-v-44" value="" style="sketch=0;html=1;dashed=0;whitespace=wrap;fillColor=#2875E2;strokeColor=#ffffff;points=[[0.005,0.63,0],[0.1,0.2,0],[0.9,0.2,0],[0.5,0,0],[0.995,0.63,0],[0.72,0.99,0],[0.5,1,0],[0.28,0.99,0]];shape=mxgraph.kubernetes.icon;prIcon=pod" vertex="1" parent="hhGP_iGd9nHn72yoj9-v-43">
          <mxGeometry x="6.25" width="47.5" height="40" as="geometry" />
        </mxCell>
        <mxCell id="hhGP_iGd9nHn72yoj9-v-45" value="Products" style="text;html=1;strokeColor=none;fillColor=none;align=center;verticalAlign=middle;whiteSpace=wrap;rounded=0;fontSize=10;" vertex="1" parent="hhGP_iGd9nHn72yoj9-v-43">
          <mxGeometry y="30" width="60" height="30" as="geometry" />
        </mxCell>
        <mxCell id="hhGP_iGd9nHn72yoj9-v-46" style="edgeStyle=orthogonalEdgeStyle;rounded=0;orthogonalLoop=1;jettySize=auto;html=1;fontSize=12;" edge="1" parent="1" source="hhGP_iGd9nHn72yoj9-v-50" target="hhGP_iGd9nHn72yoj9-v-2">
          <mxGeometry relative="1" as="geometry" />
        </mxCell>
        <mxCell id="hhGP_iGd9nHn72yoj9-v-47" style="edgeStyle=orthogonalEdgeStyle;rounded=0;orthogonalLoop=1;jettySize=auto;html=1;entryX=0;entryY=0.5;entryDx=0;entryDy=0;fontSize=12;" edge="1" parent="1" source="hhGP_iGd9nHn72yoj9-v-48" target="hhGP_iGd9nHn72yoj9-v-50">
          <mxGeometry relative="1" as="geometry" />
        </mxCell>
        <mxCell id="hhGP_iGd9nHn72yoj9-v-48" value="Users" style="sketch=0;outlineConnect=0;fontColor=#232F3E;gradientColor=none;strokeColor=#232F3E;fillColor=#ffffff;dashed=0;verticalLabelPosition=bottom;verticalAlign=top;align=center;html=1;fontSize=12;fontStyle=0;aspect=fixed;shape=mxgraph.aws4.resourceIcon;resIcon=mxgraph.aws4.users;" vertex="1" parent="1">
          <mxGeometry x="-210" y="234.99" width="60" height="60" as="geometry" />
        </mxCell>
        <mxCell id="hhGP_iGd9nHn72yoj9-v-49" value="" style="group" vertex="1" connectable="0" parent="1">
          <mxGeometry x="-50" y="231.63" width="106.93" height="93.37" as="geometry" />
        </mxCell>
        <mxCell id="hhGP_iGd9nHn72yoj9-v-50" value="" style="aspect=fixed;perimeter=ellipsePerimeter;html=1;align=center;shadow=0;dashed=0;spacingTop=3;image;image=img/lib/active_directory/internet_cloud.svg;fontSize=12;" vertex="1" parent="hhGP_iGd9nHn72yoj9-v-49">
          <mxGeometry width="106.93" height="67.37" as="geometry" />
        </mxCell>
        <mxCell id="hhGP_iGd9nHn72yoj9-v-51" value="Internet" style="text;html=1;strokeColor=none;fillColor=none;align=center;verticalAlign=middle;whiteSpace=wrap;rounded=0;fontSize=12;" vertex="1" parent="hhGP_iGd9nHn72yoj9-v-49">
          <mxGeometry x="23" y="63.370000000000005" width="60" height="30" as="geometry" />
        </mxCell>
      </root>
    </mxGraphModel>
  </diagram>
  <diagram id="TgcGej_k7EXW4DscIUXs" name="service-as-lb">
    <mxGraphModel dx="1038" dy="621" grid="1" gridSize="10" guides="1" tooltips="1" connect="1" arrows="1" fold="1" page="1" pageScale="1" pageWidth="850" pageHeight="1100" math="0" shadow="0">
      <root>
        <mxCell id="0" />
        <mxCell id="1" parent="0" />
      </root>
    </mxGraphModel>
  </diagram>
  <diagram id="muBcmWwE8eGOIZJHyBb6" name="cluster-ip">
    <mxGraphModel dx="1038" dy="621" grid="1" gridSize="10" guides="1" tooltips="1" connect="1" arrows="1" fold="1" page="1" pageScale="1" pageWidth="850" pageHeight="1100" math="0" shadow="0">
      <root>
        <mxCell id="0" />
        <mxCell id="1" parent="0" />
      </root>
    </mxGraphModel>
  </diagram>
  <diagram id="uoBvsOCOOeO3LykhZKXs" name="nodeport">
    <mxGraphModel dx="1888" dy="621" grid="1" gridSize="10" guides="1" tooltips="1" connect="1" arrows="1" fold="1" page="1" pageScale="1" pageWidth="850" pageHeight="1100" math="0" shadow="0">
      <root>
        <mxCell id="0" />
        <mxCell id="1" parent="0" />
        <mxCell id="PrnIe-Nk96-28IO1uZdI-1" style="edgeStyle=orthogonalEdgeStyle;rounded=0;orthogonalLoop=1;jettySize=auto;html=1;entryX=0;entryY=0.5;entryDx=0;entryDy=0;fontSize=12;movable=1;resizable=1;rotatable=1;deletable=1;editable=1;connectable=1;" edge="1" parent="1" source="PrnIe-Nk96-28IO1uZdI-2" target="PrnIe-Nk96-28IO1uZdI-4">
          <mxGeometry relative="1" as="geometry" />
        </mxCell>
        <mxCell id="PrnIe-Nk96-28IO1uZdI-2" value="Users" style="sketch=0;outlineConnect=0;fontColor=#232F3E;gradientColor=none;strokeColor=#232F3E;fillColor=#ffffff;dashed=0;verticalLabelPosition=bottom;verticalAlign=top;align=center;html=1;fontSize=12;fontStyle=0;aspect=fixed;shape=mxgraph.aws4.resourceIcon;resIcon=mxgraph.aws4.users;movable=1;resizable=1;rotatable=1;deletable=1;editable=1;connectable=1;" vertex="1" parent="1">
          <mxGeometry x="-204" y="355.36" width="60" height="60" as="geometry" />
        </mxCell>
        <mxCell id="PrnIe-Nk96-28IO1uZdI-3" value="" style="group;movable=1;resizable=1;rotatable=1;deletable=1;editable=1;connectable=1;" vertex="1" connectable="0" parent="1">
          <mxGeometry x="-45" y="352" width="106.93" height="93.37" as="geometry" />
        </mxCell>
        <mxCell id="PrnIe-Nk96-28IO1uZdI-4" value="" style="aspect=fixed;perimeter=ellipsePerimeter;html=1;align=center;shadow=0;dashed=0;spacingTop=3;image;image=img/lib/active_directory/internet_cloud.svg;fontSize=12;movable=1;resizable=1;rotatable=1;deletable=1;editable=1;connectable=1;" vertex="1" parent="PrnIe-Nk96-28IO1uZdI-3">
          <mxGeometry x="1" width="106.93" height="67.37" as="geometry" />
        </mxCell>
        <mxCell id="PrnIe-Nk96-28IO1uZdI-5" value="Internet" style="text;html=1;strokeColor=none;fillColor=none;align=center;verticalAlign=middle;whiteSpace=wrap;rounded=0;fontSize=12;movable=1;resizable=1;rotatable=1;deletable=1;editable=1;connectable=1;" vertex="1" parent="PrnIe-Nk96-28IO1uZdI-3">
          <mxGeometry x="23" y="63.370000000000005" width="60" height="30" as="geometry" />
        </mxCell>
        <mxCell id="PrnIe-Nk96-28IO1uZdI-6" value="" style="rounded=1;whiteSpace=wrap;html=1;fontSize=12;arcSize=4;fillColor=#f5f5f5;fontColor=#333333;strokeColor=#666666;" vertex="1" parent="1">
          <mxGeometry x="160" y="63" width="560" height="547" as="geometry" />
        </mxCell>
        <mxCell id="PrnIe-Nk96-28IO1uZdI-7" value="" style="group;movable=0;resizable=0;rotatable=0;deletable=0;editable=0;connectable=0;" vertex="1" connectable="0" parent="1">
          <mxGeometry x="170" y="66.43262195121952" width="150" height="31.27499999999999" as="geometry" />
        </mxCell>
        <mxCell id="PrnIe-Nk96-28IO1uZdI-8" value="&lt;b&gt;Kubernetes Cluster&lt;/b&gt;" style="text;html=1;strokeColor=none;fillColor=none;align=center;verticalAlign=middle;whiteSpace=wrap;rounded=0;fontSize=12;movable=0;resizable=0;rotatable=0;deletable=0;editable=0;connectable=0;" vertex="1" parent="PrnIe-Nk96-28IO1uZdI-7">
          <mxGeometry x="30" width="120" height="31.275" as="geometry" />
        </mxCell>
        <mxCell id="PrnIe-Nk96-28IO1uZdI-9" value="" style="sketch=0;aspect=fixed;html=1;points=[];align=center;image;fontSize=12;image=img/lib/mscae/Kubernetes.svg;movable=0;resizable=0;rotatable=0;deletable=0;editable=0;connectable=0;" vertex="1" parent="PrnIe-Nk96-28IO1uZdI-7">
          <mxGeometry y="3.43262195121951" width="25" height="24" as="geometry" />
        </mxCell>
        <mxCell id="PrnIe-Nk96-28IO1uZdI-10" value="" style="rounded=1;whiteSpace=wrap;html=1;fillColor=#dae8fc;strokeColor=#6c8ebf;" vertex="1" parent="1">
          <mxGeometry x="258" y="178.03" width="49" height="412.97" as="geometry" />
        </mxCell>
        <mxCell id="PrnIe-Nk96-28IO1uZdI-11" value="" style="group;movable=1;resizable=1;rotatable=1;deletable=1;editable=1;connectable=1;" vertex="1" connectable="0" parent="1">
          <mxGeometry x="287" y="184" width="380" height="120" as="geometry" />
        </mxCell>
        <mxCell id="PrnIe-Nk96-28IO1uZdI-12" value="" style="rounded=1;whiteSpace=wrap;html=1;fontSize=10;fillColor=#ffe6cc;strokeColor=#d79b00;movable=1;resizable=1;rotatable=1;deletable=1;editable=1;connectable=1;" vertex="1" parent="PrnIe-Nk96-28IO1uZdI-11">
          <mxGeometry width="380" height="120" as="geometry" />
        </mxCell>
        <mxCell id="PrnIe-Nk96-28IO1uZdI-13" value="" style="group;movable=1;resizable=1;rotatable=1;deletable=1;editable=1;connectable=1;" vertex="1" connectable="0" parent="PrnIe-Nk96-28IO1uZdI-11">
          <mxGeometry x="50" y="35" width="330" height="60" as="geometry" />
        </mxCell>
        <mxCell id="PrnIe-Nk96-28IO1uZdI-14" value="" style="group;movable=1;resizable=1;rotatable=1;deletable=1;editable=1;connectable=1;" vertex="1" connectable="0" parent="PrnIe-Nk96-28IO1uZdI-13">
          <mxGeometry width="60" height="60" as="geometry" />
        </mxCell>
        <mxCell id="PrnIe-Nk96-28IO1uZdI-15" value="" style="sketch=0;html=1;dashed=0;whitespace=wrap;fillColor=#2875E2;strokeColor=#ffffff;points=[[0.005,0.63,0],[0.1,0.2,0],[0.9,0.2,0],[0.5,0,0],[0.995,0.63,0],[0.72,0.99,0],[0.5,1,0],[0.28,0.99,0]];shape=mxgraph.kubernetes.icon;prIcon=pod;movable=1;resizable=1;rotatable=1;deletable=1;editable=1;connectable=1;" vertex="1" parent="PrnIe-Nk96-28IO1uZdI-14">
          <mxGeometry x="6.25" width="47.5" height="40" as="geometry" />
        </mxCell>
        <mxCell id="PrnIe-Nk96-28IO1uZdI-16" value="Reviews" style="text;html=1;strokeColor=none;fillColor=none;align=center;verticalAlign=middle;whiteSpace=wrap;rounded=0;fontSize=10;movable=1;resizable=1;rotatable=1;deletable=1;editable=1;connectable=1;" vertex="1" parent="PrnIe-Nk96-28IO1uZdI-14">
          <mxGeometry y="30" width="60" height="30" as="geometry" />
        </mxCell>
        <mxCell id="PrnIe-Nk96-28IO1uZdI-17" value="" style="group;movable=1;resizable=1;rotatable=1;deletable=1;editable=1;connectable=1;" vertex="1" connectable="0" parent="PrnIe-Nk96-28IO1uZdI-13">
          <mxGeometry x="90" width="60" height="60" as="geometry" />
        </mxCell>
        <mxCell id="PrnIe-Nk96-28IO1uZdI-18" value="" style="sketch=0;html=1;dashed=0;whitespace=wrap;fillColor=#2875E2;strokeColor=#ffffff;points=[[0.005,0.63,0],[0.1,0.2,0],[0.9,0.2,0],[0.5,0,0],[0.995,0.63,0],[0.72,0.99,0],[0.5,1,0],[0.28,0.99,0]];shape=mxgraph.kubernetes.icon;prIcon=pod;movable=1;resizable=1;rotatable=1;deletable=1;editable=1;connectable=1;" vertex="1" parent="PrnIe-Nk96-28IO1uZdI-17">
          <mxGeometry x="6.25" width="47.5" height="40" as="geometry" />
        </mxCell>
        <mxCell id="PrnIe-Nk96-28IO1uZdI-19" value="Products" style="text;html=1;strokeColor=none;fillColor=none;align=center;verticalAlign=middle;whiteSpace=wrap;rounded=0;fontSize=10;movable=1;resizable=1;rotatable=1;deletable=1;editable=1;connectable=1;" vertex="1" parent="PrnIe-Nk96-28IO1uZdI-17">
          <mxGeometry y="30" width="60" height="30" as="geometry" />
        </mxCell>
        <mxCell id="PrnIe-Nk96-28IO1uZdI-20" value="" style="group;movable=1;resizable=1;rotatable=1;deletable=1;editable=1;connectable=1;" vertex="1" connectable="0" parent="PrnIe-Nk96-28IO1uZdI-13">
          <mxGeometry x="180" width="60" height="60" as="geometry" />
        </mxCell>
        <mxCell id="PrnIe-Nk96-28IO1uZdI-21" value="" style="sketch=0;html=1;dashed=0;whitespace=wrap;fillColor=#2875E2;strokeColor=#ffffff;points=[[0.005,0.63,0],[0.1,0.2,0],[0.9,0.2,0],[0.5,0,0],[0.995,0.63,0],[0.72,0.99,0],[0.5,1,0],[0.28,0.99,0]];shape=mxgraph.kubernetes.icon;prIcon=pod;movable=1;resizable=1;rotatable=1;deletable=1;editable=1;connectable=1;" vertex="1" parent="PrnIe-Nk96-28IO1uZdI-20">
          <mxGeometry x="6.25" width="47.5" height="40" as="geometry" />
        </mxCell>
        <mxCell id="PrnIe-Nk96-28IO1uZdI-22" value="Ratings" style="text;html=1;strokeColor=none;fillColor=none;align=center;verticalAlign=middle;whiteSpace=wrap;rounded=0;fontSize=10;movable=1;resizable=1;rotatable=1;deletable=1;editable=1;connectable=1;" vertex="1" parent="PrnIe-Nk96-28IO1uZdI-20">
          <mxGeometry y="30" width="60" height="30" as="geometry" />
        </mxCell>
        <mxCell id="PrnIe-Nk96-28IO1uZdI-23" value="" style="group;movable=1;resizable=1;rotatable=1;deletable=1;editable=1;connectable=1;" vertex="1" connectable="0" parent="PrnIe-Nk96-28IO1uZdI-13">
          <mxGeometry x="270" width="60" height="60" as="geometry" />
        </mxCell>
        <mxCell id="PrnIe-Nk96-28IO1uZdI-24" value="" style="sketch=0;html=1;dashed=0;whitespace=wrap;fillColor=#2875E2;strokeColor=#ffffff;points=[[0.005,0.63,0],[0.1,0.2,0],[0.9,0.2,0],[0.5,0,0],[0.995,0.63,0],[0.72,0.99,0],[0.5,1,0],[0.28,0.99,0]];shape=mxgraph.kubernetes.icon;prIcon=pod;movable=1;resizable=1;rotatable=1;deletable=1;editable=1;connectable=1;" vertex="1" parent="PrnIe-Nk96-28IO1uZdI-23">
          <mxGeometry x="6.25" width="47.5" height="40" as="geometry" />
        </mxCell>
        <mxCell id="PrnIe-Nk96-28IO1uZdI-25" value="Details" style="text;html=1;strokeColor=none;fillColor=none;align=center;verticalAlign=middle;whiteSpace=wrap;rounded=0;fontSize=10;movable=1;resizable=1;rotatable=1;deletable=1;editable=1;connectable=1;" vertex="1" parent="PrnIe-Nk96-28IO1uZdI-23">
          <mxGeometry y="30" width="60" height="30" as="geometry" />
        </mxCell>
        <mxCell id="PrnIe-Nk96-28IO1uZdI-26" value="NODE A" style="text;html=1;strokeColor=none;fillColor=none;align=center;verticalAlign=middle;whiteSpace=wrap;rounded=0;movable=1;resizable=1;rotatable=1;deletable=1;editable=1;connectable=1;" vertex="1" parent="PrnIe-Nk96-28IO1uZdI-11">
          <mxGeometry x="160" width="60" height="30" as="geometry" />
        </mxCell>
        <mxCell id="PrnIe-Nk96-28IO1uZdI-27" value="" style="group;movable=1;resizable=1;rotatable=1;deletable=1;editable=1;connectable=1;" vertex="1" connectable="0" parent="1">
          <mxGeometry x="287" y="324" width="380" height="120" as="geometry" />
        </mxCell>
        <mxCell id="PrnIe-Nk96-28IO1uZdI-28" value="" style="rounded=1;whiteSpace=wrap;html=1;fontSize=10;fillColor=#ffe6cc;strokeColor=#d79b00;movable=1;resizable=1;rotatable=1;deletable=1;editable=1;connectable=1;" vertex="1" parent="PrnIe-Nk96-28IO1uZdI-27">
          <mxGeometry width="380" height="120" as="geometry" />
        </mxCell>
        <mxCell id="PrnIe-Nk96-28IO1uZdI-29" value="" style="group;movable=1;resizable=1;rotatable=1;deletable=1;editable=1;connectable=1;" vertex="1" connectable="0" parent="PrnIe-Nk96-28IO1uZdI-27">
          <mxGeometry x="50" y="35" width="330" height="60" as="geometry" />
        </mxCell>
        <mxCell id="PrnIe-Nk96-28IO1uZdI-30" value="" style="group;movable=1;resizable=1;rotatable=1;deletable=1;editable=1;connectable=1;" vertex="1" connectable="0" parent="PrnIe-Nk96-28IO1uZdI-29">
          <mxGeometry width="60" height="60" as="geometry" />
        </mxCell>
        <mxCell id="PrnIe-Nk96-28IO1uZdI-31" value="" style="sketch=0;html=1;dashed=0;whitespace=wrap;fillColor=#2875E2;strokeColor=#ffffff;points=[[0.005,0.63,0],[0.1,0.2,0],[0.9,0.2,0],[0.5,0,0],[0.995,0.63,0],[0.72,0.99,0],[0.5,1,0],[0.28,0.99,0]];shape=mxgraph.kubernetes.icon;prIcon=pod;movable=1;resizable=1;rotatable=1;deletable=1;editable=1;connectable=1;" vertex="1" parent="PrnIe-Nk96-28IO1uZdI-30">
          <mxGeometry x="6.25" width="47.5" height="40" as="geometry" />
        </mxCell>
        <mxCell id="PrnIe-Nk96-28IO1uZdI-32" value="Reviews" style="text;html=1;strokeColor=none;fillColor=none;align=center;verticalAlign=middle;whiteSpace=wrap;rounded=0;fontSize=10;movable=1;resizable=1;rotatable=1;deletable=1;editable=1;connectable=1;" vertex="1" parent="PrnIe-Nk96-28IO1uZdI-30">
          <mxGeometry y="30" width="60" height="30" as="geometry" />
        </mxCell>
        <mxCell id="PrnIe-Nk96-28IO1uZdI-33" value="" style="group;movable=1;resizable=1;rotatable=1;deletable=1;editable=1;connectable=1;" vertex="1" connectable="0" parent="PrnIe-Nk96-28IO1uZdI-29">
          <mxGeometry x="90" width="60" height="60" as="geometry" />
        </mxCell>
        <mxCell id="PrnIe-Nk96-28IO1uZdI-34" value="" style="sketch=0;html=1;dashed=0;whitespace=wrap;fillColor=#2875E2;strokeColor=#ffffff;points=[[0.005,0.63,0],[0.1,0.2,0],[0.9,0.2,0],[0.5,0,0],[0.995,0.63,0],[0.72,0.99,0],[0.5,1,0],[0.28,0.99,0]];shape=mxgraph.kubernetes.icon;prIcon=pod;movable=1;resizable=1;rotatable=1;deletable=1;editable=1;connectable=1;" vertex="1" parent="PrnIe-Nk96-28IO1uZdI-33">
          <mxGeometry x="6.25" width="47.5" height="40" as="geometry" />
        </mxCell>
        <mxCell id="PrnIe-Nk96-28IO1uZdI-35" value="Products" style="text;html=1;strokeColor=none;fillColor=none;align=center;verticalAlign=middle;whiteSpace=wrap;rounded=0;fontSize=10;movable=1;resizable=1;rotatable=1;deletable=1;editable=1;connectable=1;" vertex="1" parent="PrnIe-Nk96-28IO1uZdI-33">
          <mxGeometry y="30" width="60" height="30" as="geometry" />
        </mxCell>
        <mxCell id="PrnIe-Nk96-28IO1uZdI-36" value="" style="group;movable=1;resizable=1;rotatable=1;deletable=1;editable=1;connectable=1;" vertex="1" connectable="0" parent="PrnIe-Nk96-28IO1uZdI-29">
          <mxGeometry x="180" width="60" height="60" as="geometry" />
        </mxCell>
        <mxCell id="PrnIe-Nk96-28IO1uZdI-37" value="" style="sketch=0;html=1;dashed=0;whitespace=wrap;fillColor=#2875E2;strokeColor=#ffffff;points=[[0.005,0.63,0],[0.1,0.2,0],[0.9,0.2,0],[0.5,0,0],[0.995,0.63,0],[0.72,0.99,0],[0.5,1,0],[0.28,0.99,0]];shape=mxgraph.kubernetes.icon;prIcon=pod;movable=1;resizable=1;rotatable=1;deletable=1;editable=1;connectable=1;" vertex="1" parent="PrnIe-Nk96-28IO1uZdI-36">
          <mxGeometry x="6.25" width="47.5" height="40" as="geometry" />
        </mxCell>
        <mxCell id="PrnIe-Nk96-28IO1uZdI-38" value="Ratings" style="text;html=1;strokeColor=none;fillColor=none;align=center;verticalAlign=middle;whiteSpace=wrap;rounded=0;fontSize=10;movable=1;resizable=1;rotatable=1;deletable=1;editable=1;connectable=1;" vertex="1" parent="PrnIe-Nk96-28IO1uZdI-36">
          <mxGeometry y="30" width="60" height="30" as="geometry" />
        </mxCell>
        <mxCell id="PrnIe-Nk96-28IO1uZdI-39" value="" style="group;movable=1;resizable=1;rotatable=1;deletable=1;editable=1;connectable=1;" vertex="1" connectable="0" parent="PrnIe-Nk96-28IO1uZdI-29">
          <mxGeometry x="270" width="60" height="60" as="geometry" />
        </mxCell>
        <mxCell id="PrnIe-Nk96-28IO1uZdI-40" value="" style="sketch=0;html=1;dashed=0;whitespace=wrap;fillColor=#2875E2;strokeColor=#ffffff;points=[[0.005,0.63,0],[0.1,0.2,0],[0.9,0.2,0],[0.5,0,0],[0.995,0.63,0],[0.72,0.99,0],[0.5,1,0],[0.28,0.99,0]];shape=mxgraph.kubernetes.icon;prIcon=pod;movable=1;resizable=1;rotatable=1;deletable=1;editable=1;connectable=1;" vertex="1" parent="PrnIe-Nk96-28IO1uZdI-39">
          <mxGeometry x="6.25" width="47.5" height="40" as="geometry" />
        </mxCell>
        <mxCell id="PrnIe-Nk96-28IO1uZdI-41" value="Details" style="text;html=1;strokeColor=none;fillColor=none;align=center;verticalAlign=middle;whiteSpace=wrap;rounded=0;fontSize=10;movable=1;resizable=1;rotatable=1;deletable=1;editable=1;connectable=1;" vertex="1" parent="PrnIe-Nk96-28IO1uZdI-39">
          <mxGeometry y="30" width="60" height="30" as="geometry" />
        </mxCell>
        <mxCell id="PrnIe-Nk96-28IO1uZdI-42" value="NODE B" style="text;html=1;strokeColor=none;fillColor=none;align=center;verticalAlign=middle;whiteSpace=wrap;rounded=0;movable=1;resizable=1;rotatable=1;deletable=1;editable=1;connectable=1;" vertex="1" parent="PrnIe-Nk96-28IO1uZdI-27">
          <mxGeometry x="160" width="60" height="30" as="geometry" />
        </mxCell>
        <mxCell id="PrnIe-Nk96-28IO1uZdI-43" value="" style="group;movable=1;resizable=1;rotatable=1;deletable=1;editable=1;connectable=1;" vertex="1" connectable="0" parent="1">
          <mxGeometry x="288" y="464" width="380" height="120" as="geometry" />
        </mxCell>
        <mxCell id="PrnIe-Nk96-28IO1uZdI-44" value="" style="rounded=1;whiteSpace=wrap;html=1;fontSize=10;fillColor=#ffe6cc;strokeColor=#d79b00;movable=1;resizable=1;rotatable=1;deletable=1;editable=1;connectable=1;" vertex="1" parent="PrnIe-Nk96-28IO1uZdI-43">
          <mxGeometry width="380" height="120" as="geometry" />
        </mxCell>
        <mxCell id="PrnIe-Nk96-28IO1uZdI-45" value="" style="group;movable=1;resizable=1;rotatable=1;deletable=1;editable=1;connectable=1;" vertex="1" connectable="0" parent="PrnIe-Nk96-28IO1uZdI-43">
          <mxGeometry x="49" y="34" width="330" height="60" as="geometry" />
        </mxCell>
        <mxCell id="PrnIe-Nk96-28IO1uZdI-46" value="" style="group;movable=1;resizable=1;rotatable=1;deletable=1;editable=1;connectable=1;" vertex="1" connectable="0" parent="PrnIe-Nk96-28IO1uZdI-45">
          <mxGeometry width="60" height="60" as="geometry" />
        </mxCell>
        <mxCell id="PrnIe-Nk96-28IO1uZdI-47" value="" style="sketch=0;html=1;dashed=0;whitespace=wrap;fillColor=#2875E2;strokeColor=#ffffff;points=[[0.005,0.63,0],[0.1,0.2,0],[0.9,0.2,0],[0.5,0,0],[0.995,0.63,0],[0.72,0.99,0],[0.5,1,0],[0.28,0.99,0]];shape=mxgraph.kubernetes.icon;prIcon=pod;movable=1;resizable=1;rotatable=1;deletable=1;editable=1;connectable=1;" vertex="1" parent="PrnIe-Nk96-28IO1uZdI-46">
          <mxGeometry x="6.25" width="47.5" height="40" as="geometry" />
        </mxCell>
        <mxCell id="PrnIe-Nk96-28IO1uZdI-48" value="Reviews" style="text;html=1;strokeColor=none;fillColor=none;align=center;verticalAlign=middle;whiteSpace=wrap;rounded=0;fontSize=10;movable=1;resizable=1;rotatable=1;deletable=1;editable=1;connectable=1;" vertex="1" parent="PrnIe-Nk96-28IO1uZdI-46">
          <mxGeometry y="30" width="60" height="30" as="geometry" />
        </mxCell>
        <mxCell id="PrnIe-Nk96-28IO1uZdI-49" value="" style="group;movable=1;resizable=1;rotatable=1;deletable=1;editable=1;connectable=1;" vertex="1" connectable="0" parent="PrnIe-Nk96-28IO1uZdI-45">
          <mxGeometry x="90" width="60" height="60" as="geometry" />
        </mxCell>
        <mxCell id="PrnIe-Nk96-28IO1uZdI-50" value="" style="sketch=0;html=1;dashed=0;whitespace=wrap;fillColor=#2875E2;strokeColor=#ffffff;points=[[0.005,0.63,0],[0.1,0.2,0],[0.9,0.2,0],[0.5,0,0],[0.995,0.63,0],[0.72,0.99,0],[0.5,1,0],[0.28,0.99,0]];shape=mxgraph.kubernetes.icon;prIcon=pod;movable=1;resizable=1;rotatable=1;deletable=1;editable=1;connectable=1;" vertex="1" parent="PrnIe-Nk96-28IO1uZdI-49">
          <mxGeometry x="6.25" width="47.5" height="40" as="geometry" />
        </mxCell>
        <mxCell id="PrnIe-Nk96-28IO1uZdI-51" value="Products" style="text;html=1;strokeColor=none;fillColor=none;align=center;verticalAlign=middle;whiteSpace=wrap;rounded=0;fontSize=10;movable=1;resizable=1;rotatable=1;deletable=1;editable=1;connectable=1;" vertex="1" parent="PrnIe-Nk96-28IO1uZdI-49">
          <mxGeometry y="30" width="60" height="30" as="geometry" />
        </mxCell>
        <mxCell id="PrnIe-Nk96-28IO1uZdI-52" value="" style="group;movable=1;resizable=1;rotatable=1;deletable=1;editable=1;connectable=1;" vertex="1" connectable="0" parent="PrnIe-Nk96-28IO1uZdI-45">
          <mxGeometry x="180" width="60" height="60" as="geometry" />
        </mxCell>
        <mxCell id="PrnIe-Nk96-28IO1uZdI-53" value="" style="sketch=0;html=1;dashed=0;whitespace=wrap;fillColor=#2875E2;strokeColor=#ffffff;points=[[0.005,0.63,0],[0.1,0.2,0],[0.9,0.2,0],[0.5,0,0],[0.995,0.63,0],[0.72,0.99,0],[0.5,1,0],[0.28,0.99,0]];shape=mxgraph.kubernetes.icon;prIcon=pod;movable=1;resizable=1;rotatable=1;deletable=1;editable=1;connectable=1;" vertex="1" parent="PrnIe-Nk96-28IO1uZdI-52">
          <mxGeometry x="6.25" width="47.5" height="40" as="geometry" />
        </mxCell>
        <mxCell id="PrnIe-Nk96-28IO1uZdI-54" value="Ratings" style="text;html=1;strokeColor=none;fillColor=none;align=center;verticalAlign=middle;whiteSpace=wrap;rounded=0;fontSize=10;movable=1;resizable=1;rotatable=1;deletable=1;editable=1;connectable=1;" vertex="1" parent="PrnIe-Nk96-28IO1uZdI-52">
          <mxGeometry y="30" width="60" height="30" as="geometry" />
        </mxCell>
        <mxCell id="PrnIe-Nk96-28IO1uZdI-55" value="" style="group;movable=1;resizable=1;rotatable=1;deletable=1;editable=1;connectable=1;" vertex="1" connectable="0" parent="PrnIe-Nk96-28IO1uZdI-45">
          <mxGeometry x="270" width="60" height="60" as="geometry" />
        </mxCell>
        <mxCell id="PrnIe-Nk96-28IO1uZdI-56" value="" style="sketch=0;html=1;dashed=0;whitespace=wrap;fillColor=#2875E2;strokeColor=#ffffff;points=[[0.005,0.63,0],[0.1,0.2,0],[0.9,0.2,0],[0.5,0,0],[0.995,0.63,0],[0.72,0.99,0],[0.5,1,0],[0.28,0.99,0]];shape=mxgraph.kubernetes.icon;prIcon=pod;movable=1;resizable=1;rotatable=1;deletable=1;editable=1;connectable=1;" vertex="1" parent="PrnIe-Nk96-28IO1uZdI-55">
          <mxGeometry x="6.25" width="47.5" height="40" as="geometry" />
        </mxCell>
        <mxCell id="PrnIe-Nk96-28IO1uZdI-57" value="Details" style="text;html=1;strokeColor=none;fillColor=none;align=center;verticalAlign=middle;whiteSpace=wrap;rounded=0;fontSize=10;movable=1;resizable=1;rotatable=1;deletable=1;editable=1;connectable=1;" vertex="1" parent="PrnIe-Nk96-28IO1uZdI-55">
          <mxGeometry y="30" width="60" height="30" as="geometry" />
        </mxCell>
        <mxCell id="PrnIe-Nk96-28IO1uZdI-58" style="edgeStyle=orthogonalEdgeStyle;rounded=0;orthogonalLoop=1;jettySize=auto;html=1;exitX=1;exitY=0.5;exitDx=0;exitDy=0;entryX=0.005;entryY=0.63;entryDx=0;entryDy=0;entryPerimeter=0;movable=1;resizable=1;rotatable=1;deletable=1;editable=1;connectable=1;" edge="1" parent="PrnIe-Nk96-28IO1uZdI-43" source="PrnIe-Nk96-28IO1uZdI-59" target="PrnIe-Nk96-28IO1uZdI-47">
          <mxGeometry relative="1" as="geometry" />
        </mxCell>
        <mxCell id="PrnIe-Nk96-28IO1uZdI-59" value="&lt;b&gt;3&lt;br&gt;0&lt;br&gt;5&lt;br&gt;1&lt;br&gt;9&lt;/b&gt;" style="rounded=1;whiteSpace=wrap;html=1;movable=1;resizable=1;rotatable=1;deletable=1;editable=1;connectable=1;" vertex="1" parent="PrnIe-Nk96-28IO1uZdI-43">
          <mxGeometry x="-21" y="18.5" width="30" height="83" as="geometry" />
        </mxCell>
        <mxCell id="PrnIe-Nk96-28IO1uZdI-60" value="NODE C" style="text;html=1;strokeColor=none;fillColor=none;align=center;verticalAlign=middle;whiteSpace=wrap;rounded=0;movable=1;resizable=1;rotatable=1;deletable=1;editable=1;connectable=1;" vertex="1" parent="PrnIe-Nk96-28IO1uZdI-43">
          <mxGeometry x="159" width="60" height="30" as="geometry" />
        </mxCell>
        <mxCell id="PrnIe-Nk96-28IO1uZdI-61" style="edgeStyle=orthogonalEdgeStyle;rounded=0;orthogonalLoop=1;jettySize=auto;html=1;entryX=0.005;entryY=0.63;entryDx=0;entryDy=0;entryPerimeter=0;movable=1;resizable=1;rotatable=1;deletable=1;editable=1;connectable=1;" edge="1" parent="1" source="PrnIe-Nk96-28IO1uZdI-62" target="PrnIe-Nk96-28IO1uZdI-15">
          <mxGeometry relative="1" as="geometry" />
        </mxCell>
        <mxCell id="PrnIe-Nk96-28IO1uZdI-62" value="&lt;b&gt;3&lt;br&gt;0&lt;br&gt;5&lt;br&gt;1&lt;br&gt;9&lt;/b&gt;" style="rounded=1;whiteSpace=wrap;html=1;movable=1;resizable=1;rotatable=1;deletable=1;editable=1;connectable=1;" vertex="1" parent="1">
          <mxGeometry x="267" y="203" width="30" height="83" as="geometry" />
        </mxCell>
        <mxCell id="PrnIe-Nk96-28IO1uZdI-63" style="edgeStyle=orthogonalEdgeStyle;rounded=0;orthogonalLoop=1;jettySize=auto;html=1;entryX=0.005;entryY=0.63;entryDx=0;entryDy=0;entryPerimeter=0;movable=1;resizable=1;rotatable=1;deletable=1;editable=1;connectable=1;" edge="1" parent="1" source="PrnIe-Nk96-28IO1uZdI-64" target="PrnIe-Nk96-28IO1uZdI-31">
          <mxGeometry relative="1" as="geometry" />
        </mxCell>
        <mxCell id="PrnIe-Nk96-28IO1uZdI-64" value="&lt;b&gt;3&lt;br&gt;0&lt;br&gt;5&lt;br&gt;1&lt;br&gt;9&lt;/b&gt;" style="rounded=1;whiteSpace=wrap;html=1;movable=1;resizable=1;rotatable=1;deletable=1;editable=1;connectable=1;" vertex="1" parent="1">
          <mxGeometry x="267" y="342.5" width="30" height="83" as="geometry" />
        </mxCell>
        <mxCell id="PrnIe-Nk96-28IO1uZdI-65" value="192.168.0.1" style="text;html=1;strokeColor=none;fillColor=none;align=center;verticalAlign=middle;whiteSpace=wrap;rounded=0;movable=1;resizable=1;rotatable=1;deletable=1;editable=1;connectable=1;" vertex="1" parent="1">
          <mxGeometry x="188" y="214" width="60" height="30" as="geometry" />
        </mxCell>
        <mxCell id="PrnIe-Nk96-28IO1uZdI-66" value="192.168.0.2" style="text;html=1;strokeColor=none;fillColor=none;align=center;verticalAlign=middle;whiteSpace=wrap;rounded=0;movable=1;resizable=1;rotatable=1;deletable=1;editable=1;connectable=1;" vertex="1" parent="1">
          <mxGeometry x="189" y="312.5" width="60" height="30" as="geometry" />
        </mxCell>
        <mxCell id="PrnIe-Nk96-28IO1uZdI-67" value="192.168.0.3" style="text;html=1;strokeColor=none;fillColor=none;align=center;verticalAlign=middle;whiteSpace=wrap;rounded=0;movable=1;resizable=1;rotatable=1;deletable=1;editable=1;connectable=1;" vertex="1" parent="1">
          <mxGeometry x="189" y="454" width="60" height="30" as="geometry" />
        </mxCell>
        <mxCell id="PrnIe-Nk96-28IO1uZdI-68" style="edgeStyle=orthogonalEdgeStyle;rounded=0;orthogonalLoop=1;jettySize=auto;html=1;entryX=0;entryY=0.5;entryDx=0;entryDy=0;movable=1;resizable=1;rotatable=1;deletable=1;editable=1;connectable=1;" edge="1" parent="1" target="PrnIe-Nk96-28IO1uZdI-64">
          <mxGeometry relative="1" as="geometry">
            <mxPoint x="180" y="384" as="sourcePoint" />
          </mxGeometry>
        </mxCell>
        <mxCell id="PrnIe-Nk96-28IO1uZdI-69" value="" style="group" vertex="1" connectable="0" parent="1">
          <mxGeometry x="256" y="97.70268292682933" width="60" height="79.33" as="geometry" />
        </mxCell>
        <mxCell id="PrnIe-Nk96-28IO1uZdI-70" value="" style="sketch=0;html=1;dashed=0;whitespace=wrap;fillColor=#2875E2;strokeColor=#ffffff;points=[[0.005,0.63,0],[0.1,0.2,0],[0.9,0.2,0],[0.5,0,0],[0.995,0.63,0],[0.72,0.99,0],[0.5,1,0],[0.28,0.99,0]];shape=mxgraph.kubernetes.icon;prIcon=svc" vertex="1" parent="PrnIe-Nk96-28IO1uZdI-69">
          <mxGeometry width="50" height="48.81951219512195" as="geometry" />
        </mxCell>
        <mxCell id="PrnIe-Nk96-28IO1uZdI-71" value="Reviews&lt;br&gt;NodePort Service" style="text;html=1;strokeColor=none;fillColor=none;align=center;verticalAlign=middle;whiteSpace=wrap;rounded=0;fontSize=12;" vertex="1" parent="PrnIe-Nk96-28IO1uZdI-69">
          <mxGeometry x="-27.5" y="48.82" width="105" height="30.51" as="geometry" />
        </mxCell>
        <mxCell id="PrnIe-Nk96-28IO1uZdI-72" style="edgeStyle=orthogonalEdgeStyle;rounded=0;orthogonalLoop=1;jettySize=auto;html=1;entryX=0;entryY=0.5;entryDx=0;entryDy=0;movable=1;resizable=1;rotatable=1;deletable=1;editable=1;connectable=1;" edge="1" parent="1" source="PrnIe-Nk96-28IO1uZdI-59" target="PrnIe-Nk96-28IO1uZdI-62">
          <mxGeometry relative="1" as="geometry">
            <Array as="points">
              <mxPoint x="180" y="524" />
              <mxPoint x="180" y="245" />
            </Array>
          </mxGeometry>
        </mxCell>
        <mxCell id="PrnIe-Nk96-28IO1uZdI-73" style="edgeStyle=orthogonalEdgeStyle;rounded=0;orthogonalLoop=1;jettySize=auto;html=1;startArrow=classic;startFill=1;endArrow=classic;endFill=1;movable=1;resizable=1;rotatable=1;deletable=1;editable=1;connectable=1;" edge="1" parent="1" source="PrnIe-Nk96-28IO1uZdI-4">
          <mxGeometry relative="1" as="geometry">
            <mxPoint x="180" y="386" as="targetPoint" />
          </mxGeometry>
        </mxCell>
      </root>
    </mxGraphModel>
  </diagram>
  <diagram id="LV2kFTwrL5WVxUmzEdQH" name="load-balancer">
    <mxGraphModel dx="1038" dy="621" grid="1" gridSize="10" guides="1" tooltips="1" connect="1" arrows="1" fold="1" page="1" pageScale="1" pageWidth="850" pageHeight="1100" math="0" shadow="0">
      <root>
        <mxCell id="0" />
        <mxCell id="1" parent="0" />
      </root>
    </mxGraphModel>
  </diagram>
  <diagram id="pSzc-qVjdPaDpYotRuEy" name="superset">
    <mxGraphModel dx="1038" dy="621" grid="1" gridSize="10" guides="1" tooltips="1" connect="1" arrows="1" fold="1" page="1" pageScale="1" pageWidth="850" pageHeight="1100" math="0" shadow="0">
      <root>
        <mxCell id="0" />
        <mxCell id="1" parent="0" />
      </root>
    </mxGraphModel>
  </diagram>
  <diagram id="k8e1bbU5rXCUDphHa9fR" name="ingress">
    <mxGraphModel dx="1038" dy="621" grid="1" gridSize="10" guides="1" tooltips="1" connect="1" arrows="1" fold="1" page="1" pageScale="1" pageWidth="850" pageHeight="1100" math="0" shadow="0">
      <root>
        <mxCell id="0" />
        <mxCell id="1" parent="0" />
      </root>
    </mxGraphModel>
  </diagram>
</mxfile>
